# xmcd
#
# Track frame offsets:
#	150
#	20040
#	36245
#	58370
#	83175
#	102367
#	125932
#	151005
#	172580
#	189970
#	207707
#	225205
#	227857
#	244730
#	263540
#
# Disc length: 3833 seconds
#
# Revision: 1
# Processed by: cddbd v1.5.2PL0 Copyright (c) Steve Scherf et al.
# Submitted via: audiograbber 1.83.01
#
DISCID=c30ef70f
DTITLE=Major League - Out Tha Park
DYEAR=1999
DGENRE=Rap
TTITLE0=Boogie Shooz, Kane Losta, Ice Smiles, Papa Reu - What Dem Want
TTITLE1=Boogie Shooz, Ice Smiles - Who Got That Cheez
TTITLE2=Lil Mike, Ice Smiles, Boogie Shooz, Kane Locsta, Unpredictable - Major 
TTITLE2=League Playaz
TTITLE3=Boogie Shooz, 4 Mill, Mr. Jokka - South Boyz
TTITLE4=Boogie Shooz, Nile, Ice Smiles, Baby Toya - It's Tha Weekend
TTITLE5=Nile, Pancho Villa, Tommy G, Boogie Shooz, Ice Smiles, Lifestyl - U Ain
TTITLE5='t Madd
TTITLE6=Kane Losta, Ice Smiles, Boogie Shooz - Ghetto Reality
TTITLE7=4 Mill, Boogie Shooz, Joe, Unpredictable - All Tha Same
TTITLE8=Justyce - Can't Fuck Witcha
TTITLE9=Boogie Shooz, Ice Smiles - Bounce That Ass
TTITLE10=Ice Smiles, Kane Losta, 4 Mill, Boogie Shooz - Did Ya See Me
TTITLE11=Major League - Skit
TTITLE12=4 Mill, Kane Losta, Boogie Shooz - Get That Nigga
TTITLE13=Boogie Shooz, Justyce - Million Dollar Dreamz
TTITLE14=Boogie Shooz, Kane Losta, 4 Mill - Fa My Dawgs
EXTD=www.RapMusicGuide.com
EXTT0=
EXTT1=
EXTT2=
EXTT3=
EXTT4=
EXTT5=
EXTT6=
EXTT7=
EXTT8=
EXTT9=
EXTT10=
EXTT11=
EXTT12=
EXTT13=
EXTT14=
PLAYORDER=
